<mxfile host="app.diagrams.net" modified="2023-08-29T18:12:33.993Z" agent="Mozilla/5.0 (Windows NT 10.0; Win64; x64; rv:109.0) Gecko/20100101 Firefox/116.0" etag="pRGujjC0FLX5HqqoYcBN" version="21.7.0" type="device">
  <diagram id="C5RBs43oDa-KdzZeNtuy" name="Page-1">
    <mxGraphModel dx="1434" dy="754" grid="1" gridSize="10" guides="1" tooltips="1" connect="1" arrows="1" fold="1" page="1" pageScale="1" pageWidth="827" pageHeight="1169" math="0" shadow="0">
      <root>
        <mxCell id="WIyWlLk6GJQsqaUBKTNV-0" />
        <mxCell id="WIyWlLk6GJQsqaUBKTNV-1" parent="WIyWlLk6GJQsqaUBKTNV-0" />
        <mxCell id="WIyWlLk6GJQsqaUBKTNV-2" value="" style="rounded=0;html=1;jettySize=auto;orthogonalLoop=1;fontSize=11;endArrow=classic;endFill=1;endSize=8;strokeWidth=1;shadow=0;labelBackgroundColor=none;edgeStyle=orthogonalEdgeStyle;" parent="WIyWlLk6GJQsqaUBKTNV-1" source="WIyWlLk6GJQsqaUBKTNV-3" target="WIyWlLk6GJQsqaUBKTNV-6" edge="1">
          <mxGeometry relative="1" as="geometry" />
        </mxCell>
        <mxCell id="WIyWlLk6GJQsqaUBKTNV-3" value="Trainer logs in" style="rounded=1;whiteSpace=wrap;html=1;fontSize=12;glass=0;strokeWidth=1;shadow=0;" parent="WIyWlLk6GJQsqaUBKTNV-1" vertex="1">
          <mxGeometry x="560" y="20" width="120" height="40" as="geometry" />
        </mxCell>
        <mxCell id="WIyWlLk6GJQsqaUBKTNV-4" value="" style="rounded=0;html=1;jettySize=auto;orthogonalLoop=1;fontSize=11;endArrow=classic;endFill=1;strokeWidth=1;shadow=0;labelBackgroundColor=none;edgeStyle=orthogonalEdgeStyle;entryX=1;entryY=0.5;entryDx=0;entryDy=0;" parent="WIyWlLk6GJQsqaUBKTNV-1" source="KUPakwYum-8wopjWuXbG-2" target="qCYBIea5PiO4mN_0t2aN-7" edge="1">
          <mxGeometry x="-1" y="73" relative="1" as="geometry">
            <mxPoint x="-53" y="-70" as="offset" />
            <mxPoint x="360" y="380" as="targetPoint" />
          </mxGeometry>
        </mxCell>
        <mxCell id="WIyWlLk6GJQsqaUBKTNV-5" value="No" style="edgeStyle=orthogonalEdgeStyle;rounded=0;html=1;jettySize=auto;orthogonalLoop=1;fontSize=11;endArrow=classic;endFill=1;endSize=8;strokeWidth=1;shadow=0;labelBackgroundColor=none;" parent="WIyWlLk6GJQsqaUBKTNV-1" source="WIyWlLk6GJQsqaUBKTNV-6" target="WIyWlLk6GJQsqaUBKTNV-7" edge="1">
          <mxGeometry y="10" relative="1" as="geometry">
            <mxPoint as="offset" />
          </mxGeometry>
        </mxCell>
        <mxCell id="WIyWlLk6GJQsqaUBKTNV-6" value="Does the user Id and password match?" style="rhombus;whiteSpace=wrap;html=1;shadow=0;fontFamily=Helvetica;fontSize=12;align=center;strokeWidth=1;spacing=6;spacingTop=-4;" parent="WIyWlLk6GJQsqaUBKTNV-1" vertex="1">
          <mxGeometry x="530" y="130" width="180" height="70" as="geometry" />
        </mxCell>
        <mxCell id="WIyWlLk6GJQsqaUBKTNV-7" value="Error message" style="rounded=1;whiteSpace=wrap;html=1;fontSize=12;glass=0;strokeWidth=1;shadow=0;" parent="WIyWlLk6GJQsqaUBKTNV-1" vertex="1">
          <mxGeometry x="850" y="145" width="120" height="40" as="geometry" />
        </mxCell>
        <mxCell id="KUPakwYum-8wopjWuXbG-3" value="" style="rounded=0;html=1;jettySize=auto;orthogonalLoop=1;fontSize=11;endArrow=classic;endFill=1;endSize=8;strokeWidth=1;shadow=0;labelBackgroundColor=none;edgeStyle=orthogonalEdgeStyle;" parent="WIyWlLk6GJQsqaUBKTNV-1" source="WIyWlLk6GJQsqaUBKTNV-6" target="KUPakwYum-8wopjWuXbG-2" edge="1">
          <mxGeometry y="20" relative="1" as="geometry">
            <mxPoint as="offset" />
            <mxPoint x="620" y="200" as="sourcePoint" />
            <mxPoint x="620" y="380" as="targetPoint" />
          </mxGeometry>
        </mxCell>
        <mxCell id="qCYBIea5PiO4mN_0t2aN-3" style="edgeStyle=orthogonalEdgeStyle;rounded=0;orthogonalLoop=1;jettySize=auto;html=1;exitX=0.25;exitY=1;exitDx=0;exitDy=0;entryX=0.25;entryY=0;entryDx=0;entryDy=0;" edge="1" parent="WIyWlLk6GJQsqaUBKTNV-1" source="KUPakwYum-8wopjWuXbG-2" target="qCYBIea5PiO4mN_0t2aN-9">
          <mxGeometry relative="1" as="geometry">
            <mxPoint x="535" y="370" as="targetPoint" />
          </mxGeometry>
        </mxCell>
        <mxCell id="qCYBIea5PiO4mN_0t2aN-4" style="edgeStyle=orthogonalEdgeStyle;rounded=0;orthogonalLoop=1;jettySize=auto;html=1;exitX=0.5;exitY=1;exitDx=0;exitDy=0;entryX=0.5;entryY=0;entryDx=0;entryDy=0;" edge="1" parent="WIyWlLk6GJQsqaUBKTNV-1" source="KUPakwYum-8wopjWuXbG-2" target="qCYBIea5PiO4mN_0t2aN-2">
          <mxGeometry relative="1" as="geometry">
            <Array as="points">
              <mxPoint x="620" y="410" />
              <mxPoint x="620" y="410" />
            </Array>
          </mxGeometry>
        </mxCell>
        <mxCell id="qCYBIea5PiO4mN_0t2aN-6" style="edgeStyle=orthogonalEdgeStyle;rounded=0;orthogonalLoop=1;jettySize=auto;html=1;exitX=0.75;exitY=1;exitDx=0;exitDy=0;entryX=0.5;entryY=0;entryDx=0;entryDy=0;" edge="1" parent="WIyWlLk6GJQsqaUBKTNV-1" source="KUPakwYum-8wopjWuXbG-2" target="qCYBIea5PiO4mN_0t2aN-5">
          <mxGeometry relative="1" as="geometry" />
        </mxCell>
        <mxCell id="KUPakwYum-8wopjWuXbG-2" value="Continue: Trainer is now able to use API Functionality" style="rounded=1;whiteSpace=wrap;html=1;fontSize=12;glass=0;strokeWidth=1;shadow=0;" parent="WIyWlLk6GJQsqaUBKTNV-1" vertex="1">
          <mxGeometry x="535" y="250" width="170" height="60" as="geometry" />
        </mxCell>
        <mxCell id="qCYBIea5PiO4mN_0t2aN-12" style="edgeStyle=orthogonalEdgeStyle;rounded=0;orthogonalLoop=1;jettySize=auto;html=1;exitX=0;exitY=1;exitDx=0;exitDy=0;entryX=0.5;entryY=0;entryDx=0;entryDy=0;" edge="1" parent="WIyWlLk6GJQsqaUBKTNV-1" source="qCYBIea5PiO4mN_0t2aN-2" target="qCYBIea5PiO4mN_0t2aN-10">
          <mxGeometry relative="1" as="geometry" />
        </mxCell>
        <mxCell id="qCYBIea5PiO4mN_0t2aN-15" value="Current team is 6 members big" style="edgeLabel;html=1;align=center;verticalAlign=middle;resizable=0;points=[];" vertex="1" connectable="0" parent="qCYBIea5PiO4mN_0t2aN-12">
          <mxGeometry x="-0.2132" y="1" relative="1" as="geometry">
            <mxPoint x="-28" y="-11" as="offset" />
          </mxGeometry>
        </mxCell>
        <mxCell id="qCYBIea5PiO4mN_0t2aN-16" style="edgeStyle=orthogonalEdgeStyle;rounded=0;orthogonalLoop=1;jettySize=auto;html=1;exitX=0.5;exitY=1;exitDx=0;exitDy=0;entryX=0.5;entryY=0;entryDx=0;entryDy=0;" edge="1" parent="WIyWlLk6GJQsqaUBKTNV-1" source="qCYBIea5PiO4mN_0t2aN-2" target="qCYBIea5PiO4mN_0t2aN-11">
          <mxGeometry relative="1" as="geometry" />
        </mxCell>
        <mxCell id="qCYBIea5PiO4mN_0t2aN-17" value="&lt;div&gt;Current team is less&lt;/div&gt;&lt;div&gt;than 6 members big&lt;/div&gt;" style="edgeLabel;html=1;align=center;verticalAlign=middle;resizable=0;points=[];" vertex="1" connectable="0" parent="qCYBIea5PiO4mN_0t2aN-16">
          <mxGeometry x="-0.3333" relative="1" as="geometry">
            <mxPoint y="20" as="offset" />
          </mxGeometry>
        </mxCell>
        <mxCell id="qCYBIea5PiO4mN_0t2aN-2" value="&lt;div style=&quot;font-size: 11px;&quot;&gt;&lt;font style=&quot;font-size: 11px;&quot;&gt;Want to add a&lt;/font&gt;&lt;/div&gt;&lt;div style=&quot;font-size: 11px;&quot;&gt;&lt;font style=&quot;font-size: 11px;&quot;&gt;Pokémon to Current Team?&lt;font style=&quot;font-size: 11px;&quot;&gt;&lt;br&gt;&lt;/font&gt;&lt;/font&gt;&lt;/div&gt;" style="rhombus;whiteSpace=wrap;html=1;" vertex="1" parent="WIyWlLk6GJQsqaUBKTNV-1">
          <mxGeometry x="555" y="370" width="130" height="80" as="geometry" />
        </mxCell>
        <mxCell id="qCYBIea5PiO4mN_0t2aN-21" style="edgeStyle=orthogonalEdgeStyle;rounded=0;orthogonalLoop=1;jettySize=auto;html=1;exitX=1;exitY=0.5;exitDx=0;exitDy=0;entryX=0;entryY=0.5;entryDx=0;entryDy=0;" edge="1" parent="WIyWlLk6GJQsqaUBKTNV-1" source="qCYBIea5PiO4mN_0t2aN-5" target="qCYBIea5PiO4mN_0t2aN-19">
          <mxGeometry relative="1" as="geometry" />
        </mxCell>
        <mxCell id="qCYBIea5PiO4mN_0t2aN-23" value="&lt;div&gt;Current team&lt;/div&gt;&lt;div&gt;size is 0&lt;/div&gt;" style="edgeLabel;html=1;align=center;verticalAlign=middle;resizable=0;points=[];" vertex="1" connectable="0" parent="qCYBIea5PiO4mN_0t2aN-21">
          <mxGeometry x="-0.5" y="3" relative="1" as="geometry">
            <mxPoint x="15" y="-17" as="offset" />
          </mxGeometry>
        </mxCell>
        <mxCell id="qCYBIea5PiO4mN_0t2aN-22" style="edgeStyle=orthogonalEdgeStyle;rounded=0;orthogonalLoop=1;jettySize=auto;html=1;exitX=0.5;exitY=1;exitDx=0;exitDy=0;entryX=0;entryY=0.5;entryDx=0;entryDy=0;" edge="1" parent="WIyWlLk6GJQsqaUBKTNV-1" source="qCYBIea5PiO4mN_0t2aN-5" target="qCYBIea5PiO4mN_0t2aN-20">
          <mxGeometry relative="1" as="geometry" />
        </mxCell>
        <mxCell id="qCYBIea5PiO4mN_0t2aN-24" value="&lt;div&gt;Current team size&amp;nbsp;&lt;/div&gt;&lt;div&gt;is greater than 0&lt;/div&gt;" style="edgeLabel;html=1;align=center;verticalAlign=middle;resizable=0;points=[];" vertex="1" connectable="0" parent="qCYBIea5PiO4mN_0t2aN-22">
          <mxGeometry x="-0.5333" relative="1" as="geometry">
            <mxPoint as="offset" />
          </mxGeometry>
        </mxCell>
        <mxCell id="qCYBIea5PiO4mN_0t2aN-5" value="&lt;p style=&quot;line-height: 80%;&quot;&gt;&lt;font style=&quot;font-size: 10px;&quot;&gt;Want to remove a Pokémon from Current Team?&lt;/font&gt;&lt;/p&gt;" style="rhombus;whiteSpace=wrap;html=1;" vertex="1" parent="WIyWlLk6GJQsqaUBKTNV-1">
          <mxGeometry x="690" y="390" width="120" height="90" as="geometry" />
        </mxCell>
        <mxCell id="qCYBIea5PiO4mN_0t2aN-7" value="View a Pokémon from Global Pokédex" style="rounded=1;whiteSpace=wrap;html=1;" vertex="1" parent="WIyWlLk6GJQsqaUBKTNV-1">
          <mxGeometry x="300" y="250" width="120" height="60" as="geometry" />
        </mxCell>
        <mxCell id="qCYBIea5PiO4mN_0t2aN-9" value="View Current Pokémon Team" style="rounded=1;whiteSpace=wrap;html=1;direction=south;" vertex="1" parent="WIyWlLk6GJQsqaUBKTNV-1">
          <mxGeometry x="330" y="330" width="120" height="60" as="geometry" />
        </mxCell>
        <mxCell id="qCYBIea5PiO4mN_0t2aN-10" value="TeamOverflow Exception" style="rounded=1;whiteSpace=wrap;html=1;" vertex="1" parent="WIyWlLk6GJQsqaUBKTNV-1">
          <mxGeometry x="400" y="530" width="120" height="50" as="geometry" />
        </mxCell>
        <mxCell id="qCYBIea5PiO4mN_0t2aN-18" style="edgeStyle=orthogonalEdgeStyle;rounded=0;orthogonalLoop=1;jettySize=auto;html=1;exitX=0.5;exitY=1;exitDx=0;exitDy=0;entryX=0.75;entryY=0;entryDx=0;entryDy=0;" edge="1" parent="WIyWlLk6GJQsqaUBKTNV-1" source="qCYBIea5PiO4mN_0t2aN-11" target="KUPakwYum-8wopjWuXbG-2">
          <mxGeometry relative="1" as="geometry">
            <Array as="points">
              <mxPoint x="620" y="600" />
              <mxPoint x="1070" y="600" />
              <mxPoint x="1070" y="230" />
              <mxPoint x="663" y="230" />
            </Array>
          </mxGeometry>
        </mxCell>
        <mxCell id="qCYBIea5PiO4mN_0t2aN-11" value="Successful Add Event" style="rounded=1;whiteSpace=wrap;html=1;" vertex="1" parent="WIyWlLk6GJQsqaUBKTNV-1">
          <mxGeometry x="560" y="540" width="120" height="40" as="geometry" />
        </mxCell>
        <mxCell id="qCYBIea5PiO4mN_0t2aN-19" value="EmptyTeam Exception" style="rounded=1;whiteSpace=wrap;html=1;" vertex="1" parent="WIyWlLk6GJQsqaUBKTNV-1">
          <mxGeometry x="910" y="415" width="120" height="40" as="geometry" />
        </mxCell>
        <mxCell id="qCYBIea5PiO4mN_0t2aN-25" style="edgeStyle=orthogonalEdgeStyle;rounded=0;orthogonalLoop=1;jettySize=auto;html=1;exitX=1;exitY=0.5;exitDx=0;exitDy=0;entryX=1;entryY=0.5;entryDx=0;entryDy=0;" edge="1" parent="WIyWlLk6GJQsqaUBKTNV-1" source="qCYBIea5PiO4mN_0t2aN-20" target="KUPakwYum-8wopjWuXbG-2">
          <mxGeometry relative="1" as="geometry">
            <Array as="points">
              <mxPoint x="1050" y="540" />
              <mxPoint x="1050" y="280" />
            </Array>
          </mxGeometry>
        </mxCell>
        <mxCell id="qCYBIea5PiO4mN_0t2aN-20" value="&lt;div&gt;Successful&lt;/div&gt;&lt;div&gt;Remove Event&lt;br&gt;&lt;/div&gt;" style="rounded=1;whiteSpace=wrap;html=1;" vertex="1" parent="WIyWlLk6GJQsqaUBKTNV-1">
          <mxGeometry x="810" y="520" width="120" height="40" as="geometry" />
        </mxCell>
      </root>
    </mxGraphModel>
  </diagram>
</mxfile>
